PathFileType	4	(X/Y/Z)	65_2_65_p1_0-293_filt_butterworth.trc
DataRate	CameraRate	NumFrames	NumMarkers	Units	OrigDataRate	OrigDataStartFrame	OrigNumFrames
59.0	59.0	5	27	m	59.0	256	293
Frame#	Time	RHip			RKnee			RAnkle			RBigToe			RSmallToe			RHeel			LHip			LKnee			LAnkle			LBigToe			LSmallToe			LHeel			Neck			Head			Nose			RShoulder			RElbow			RWrist			RThumb			RIndex			RPinky			LShoulder			LElbow			LWrist			LThumb			LIndex			LPinky			
		X1	Y1	Z1	X2	Y2	Z2	X3	Y3	Z3	X4	Y4	Z4	X5	Y5	Z5	X6	Y6	Z6	X7	Y7	Z7	X8	Y8	Z8	X9	Y9	Z9	X10	Y10	Z10	X11	Y11	Z11	X12	Y12	Z12	X13	Y13	Z13	X14	Y14	Z14	X15	Y15	Z15	X16	Y16	Z16	X17	Y17	Z17	X18	Y18	Z18	X19	Y19	Z19	X20	Y20	Z20	X21	Y21	Z21	X22	Y22	Z22	X23	Y23	Z23	X24	Y24	Z24	X25	Y25	Z25	X26	Y26	Z26	X27	Y27	Z27	
256	4.338983050847458	0.4198303470508028	0.6353784528615856	0.9860275258114338	0.3826827172142249	0.18100771498432927	1.0142413094509275	0.3010400492866595	-0.26487504846015403	1.0547605647874103	0.2752783725831965	-0.2599333333781258	0.7685087591823744	0.35475627880680827	-0.2634246865743475	0.8004614700823927	0.2824267722054788	-0.3332315891969752	1.0993606973628787	0.187618639971285	0.6491397502253275	0.9962637166568227	0.15300452601657863	0.19486890774134663	1.0229498231014287	0.12082380351729954	-0.224273212813895	1.0143396554804005	0.13752906291765687	-0.26630182792338375	0.8154201146475083	0.07249065817076245	-0.26311949575687277	0.8644011056731185	0.13386337491546377	-0.2903165979444109	1.0814347810281755	0.3762947046919509	1.3138141223727775	1.0021757465102987	0.4004212355939634	1.6043078178348062	0.8757109219147478	0.37978389567800236	1.4291916101670492	0.8459714548519781	0.5426160904742294	1.1857424014232945	0.9992115707478016	0.507472269880797	0.8929296914792249	0.9098116650169776	0.37129705829051013	0.7021235622204454	0.8091849767800294	0.3131285859434897	0.6578213025605434	0.7762297966774807	0.28214873046699573	0.6118624349733373	0.7986182641009287	0.2647157332657797	0.5938167759280857	0.8517034194184956	0.2066563297543073	1.2421581571870588	1.0178767447741488	0.12220981858211172	0.9504081853618292	0.9734060417512398	0.23199149462314805	0.7429440037228086	0.8241805839518109	0.33255600505231203	0.6995854364113121	0.7834210961108783	0.32032964202569114	0.647032567569957	0.7932378688088897	0.27702356002072354	0.612097080284228	0.798598964975783	
257	4.3559322033898304	0.41983137264135806	0.6352348503161495	0.9864922398558329	0.3827166946752785	0.18097360181062844	1.0142684368491315	0.3010157710436005	-0.2645026617854565	1.053757894380985	0.2753258236404996	-0.2590495077952988	0.7681027599138787	0.354635717125069	-0.26232304200178513	0.80042472370029	0.2825450560827143	-0.3327639940543873	1.0998327435325734	0.18756756837399527	0.6491209939122946	0.9962809261389919	0.152985502228287	0.1947582167347569	1.0229749215514818	0.12094523460167583	-0.2238968153691976	1.0143149607032418	0.13763942321944908	-0.2663455581088788	0.8155245852161837	0.0725009869821931	-0.26314365306993565	0.8644411225433233	0.13388761108087	-0.28991915061027446	1.0815449314658077	0.37656771320159266	1.3129314824496323	1.003274722718218	0.40050171045027094	1.6043152794058604	0.8762430943811546	0.38010569137020345	1.4289714657808141	0.8468608919635973	0.5427564215883796	1.1859462152587794	0.9978382618950223	0.5080302550463203	0.8938808090356792	0.906506192199533	0.3724338764021481	0.7034724222490301	0.8071188174442676	0.31238698732543557	0.6587097551877334	0.7737220220742902	0.282155691953575	0.6111290887541014	0.7985784346307153	0.2661462130801074	0.5945275637970824	0.8492689286736879	0.20708206612215097	1.2421620360880092	1.017802028851603	0.12295713522776489	0.9503430909122808	0.9736750771098696	0.23209449268173998	0.7427597310411889	0.8246043626714497	0.33254808334646724	0.6999434881325738	0.7823346217206721	0.3197030914108852	0.6469595227059882	0.7912726201333378	0.27738400319692913	0.6124750167871734	0.7974716734090036	
258	4.372881355932203	0.41980990383684236	0.6350323657105567	0.9868937670242489	0.38274712296670943	0.18092716840416395	1.014303540425564	0.30095808563377235	-0.26413951574626726	1.0525879158402336	0.27573256358200404	-0.25780537571497814	0.7676050856239975	0.35447466620693746	-0.2611814257736141	0.8004637198479257	0.28262508001023556	-0.3322233512418126	1.1001764535512004	0.18754400192436893	0.6490468308765384	0.9962823762114408	0.1529438602366837	0.19462137805811547	1.0230700308080072	0.12105209367976	-0.2235609143535158	1.0142917731799266	0.13767198890837448	-0.26632828871267944	0.8155264281204034	0.07250479309735028	-0.2631114122571101	0.8644059967273564	0.13392253395729423	-0.28955335686901346	1.0816650578604439	0.37654649224096365	1.3121804634194862	1.0037767066824579	0.40082694747154035	1.604300984874987	0.8775327891969068	0.38016952127835807	1.4289427735295561	0.846988238146336	0.5431326610386971	1.1862744376490602	0.9955463663386164	0.5084291285034461	0.8948109222028489	0.9030188569467691	0.37308668504987375	0.7048675101762756	0.8049390428167436	0.31163942739326433	0.6596210263633674	0.770992591417309	0.2821804628674686	0.610660271190876	0.798375430177318	0.26787132181460843	0.5953167845248508	0.8465960393202563	0.2071142368215541	1.2422139442482822	1.0174761773467011	0.1235929720355801	0.9502813132464635	0.973892851411313	0.23240896914866455	0.7423321823640184	0.8257595817150053	0.33254166612189573	0.700042499189319	0.7821117682289198	0.31914596568291026	0.6463991440909596	0.7899860716461901	0.2774730118482642	0.612555759674877	0.7972150463360865	
259	4.389830508474576	0.41983155942332134	0.63483223202274	0.9871322451259479	0.38277663722715555	0.1808756118889714	1.014343688540474	0.3008520109155904	-0.26388372724464854	1.0514377874275627	0.2764041392266978	-0.2567640024122822	0.7673509886798949	0.3544182817331809	-0.26017746267488895	0.8005783700742644	0.2826851926162239	-0.33168395853259064	1.100445635738705	0.187538894369346	0.6489393395221666	0.9962716000165843	0.1528726670489824	0.19451449613320926	1.023319791636456	0.12114113688557947	-0.2232761099034567	1.0142690196418103	0.13765395577066625	-0.26628536066747527	0.8155083868251024	0.07250070529453154	-0.2630538458236496	0.8643433374227941	0.13396384886751223	-0.28921109553438556	1.0818054610820147	0.3763983737674055	1.3116445402017456	1.0037414878768014	0.4015239169853046	1.6042517681479616	0.8795687708600762	0.38005475048475684	1.4290309717434153	0.8465955890731169	0.5436798799768316	1.1866280691113942	0.9926753414462268	0.5085496347134983	0.8956251266307607	0.899715770299093	0.37329035808950345	0.7063019503798968	0.802177897655636	0.3109879707607483	0.660451904185346	0.7683610942678376	0.2821848320580087	0.6104656855284618	0.7981833854431479	0.2695007152077542	0.5960861867270708	0.8440164711569424	0.20693626894812536	1.2422787110341167	1.017090403615558	0.12398297504974189	0.9502465273432801	0.9740205371232227	0.23281045462123462	0.742072439019031	0.8264067724240637	0.332579328452704	0.7000157253086868	0.7822531099470554	0.3188033123194695	0.6457271833294972	0.7892723820918468	0.2773928623224001	0.6124577278379234	0.7974764964806593	
260	4.406779661016949	0.4199351483756057	0.6347454060779534	0.9870818226907623	0.3828055970315649	0.18082576761964453	1.0143870355157263	0.30070420783764534	-0.2637812734860355	1.050482524289383	0.27716729023636655	-0.2565350141690864	0.7679118564004541	0.35446390043348847	-0.25945107427293523	0.8007554484231517	0.28273844918514396	-0.33121319963378265	1.1006754054070738	0.1875442840969265	0.648814964547909	0.9962500512044106	0.15278431831647918	0.1944972838565412	1.0237111162153978	0.12121011329728187	-0.22305126421884297	1.014244195726014	0.13762702698788515	-0.26625499953391196	0.8155185106588024	0.07248813760167883	-0.2630242901268843	0.8643272646692682	0.13400681267630662	-0.2888720649122025	1.081956319066849	0.37639773256102727	1.311385151830317	1.0030969556528146	0.4026960636295287	1.6041585847086937	0.8823854692062264	0.3799497546340539	1.4290779497393409	0.8462205262613303	0.5442888485896995	1.1869678350813584	0.9896197351848423	0.5083002559604459	0.8961904079520264	0.8968324735279644	0.373083055924404	0.7075890395823032	0.7991897111827304	0.3105083116654083	0.6611845602910806	0.7661895018950506	0.28214614754987843	0.6105067582102183	0.7980601628774733	0.27076118353951806	0.5967260553527968	0.8418915335611543	0.20673496872462194	1.2423481970794044	1.0166597280724334	0.12409934501059403	0.9502485221540661	0.9740462442013423	0.23307359545184025	0.7423277665808377	0.8255004790736242	0.3327356879760005	0.6999530252166992	0.782461006718316	0.31883821382509064	0.6454459556152887	0.788599504639691	0.2772878714216063	0.6123360437328553	0.7977817138222161	
